<?xml version="1.0" standalone="no"?>
<!DOCTYPE svg PUBLIC "-//W3C//DTD SVG 20010904//EN"
 "http://www.w3.org/TR/2001/REC-SVG-20010904/DTD/svg10.dtd">
<svg version="1.0" xmlns="http://www.w3.org/2000/svg"
 width="271.000000pt" height="271.000000pt" viewBox="0 0 271.000000 271.000000"
 preserveAspectRatio="xMidYMid meet">
<metadata>
Created by potrace 1.11, written by Peter Selinger 2001-2013
</metadata>
<g transform="translate(0.000000,271.000000) scale(0.100000,-0.100000)"
fill="#000000" stroke="none">
<path d="M1524 2658 c-163 -17 -321 -119 -481 -310 -79 -96 -126 -165 -186
-273 -71 -130 -31 -17 55 153 46 90 85 169 87 175 10 34 -102 -127 -153 -218
-136 -245 -241 -572 -280 -875 -13 -104 -15 -440 -3 -490 4 -13 9 -42 12 -65
28 -194 132 -405 264 -535 196 -193 425 -211 662 -53 64 42 161 130 225 203
149 171 315 518 381 795 62 263 77 570 38 805 -75 459 -311 721 -621 688z
m122 -229 c114 -54 211 -235 242 -454 9 -62 9 -316 0 -370 -9 -55 -25 -136
-33 -160 -4 -13 -1 -11 9 5 16 28 52 138 61 185 19 108 26 363 12 435 -5 21
-4 31 2 25 5 -6 12 -27 15 -49 4 -21 8 -41 10 -45 2 -3 7 -28 10 -56 4 -27 9
-65 12 -84 13 -81 6 -360 -11 -461 -2 -14 -6 -42 -9 -63 -26 -170 -91 -380
-164 -526 -94 -188 -205 -312 -341 -379 -67 -33 -83 -37 -150 -37 -58 1 -87 6
-123 23 -66 32 -128 91 -177 166 -43 65 -101 194 -101 224 0 8 -3 13 -6 9 -10
-10 16 -137 44 -212 49 -133 109 -222 190 -277 63 -43 112 -59 207 -67 l80 -6
-36 -23 c-20 -12 -56 -26 -80 -30 -136 -24 -320 76 -408 223 -37 60 -88 195
-97 254 -3 20 -8 39 -9 42 -11 17 -19 142 -20 274 0 191 9 269 46 440 11 50
22 101 25 115 13 67 99 301 145 397 135 278 293 445 474 500 44 14 131 5 181
-18z"/>
</g>
</svg>
